<?xml version="1.0" encoding="utf-8"?>
<!-- Generator: Adobe Illustrator 22.1.0, SVG Export Plug-In . SVG Version: 6.00 Build 0)  -->
<svg version="1.1" id="Layer_1" xmlns="http://www.w3.org/2000/svg" xmlns:xlink="http://www.w3.org/1999/xlink" x="0px" y="0px"
	 viewBox="0 0 1034 798" style="enable-background:new 0 0 1034 798;" xml:space="preserve">
<style type="text/css">
	.st0{opacity:0.4;fill:none;stroke:#009BDF;stroke-width:7;stroke-miterlimit:10;}
	.st1{opacity:0.4;fill:none;stroke:#0077AB;stroke-width:7;stroke-miterlimit:10;}
	.st2{opacity:0.4;fill:#009BDF;}
	.st3{opacity:0.4;fill:#005C87;}
	.st4{opacity:0.4;fill:none;stroke:#0077AB;stroke-width:3;stroke-miterlimit:10;}
	.st5{opacity:0.4;fill:none;stroke:#009BDF;stroke-width:3;stroke-miterlimit:10;}
</style>
<path class="st0" d="M0,0l188.1-0.2c0,0.1,0,0.1,0,0.2c0,103-84.6,187.8-187.6,188.1L0,0z"/>
<circle class="st0" cx="198.3" cy="609.9" r="188.1"/>
<circle class="st1" cx="223.1" cy="590.5" r="135.7"/>
<circle class="st2" cx="631.5" cy="208.6" r="147.6"/>
<circle class="st3" cx="805.1" cy="340.4" r="147.6"/>
<circle class="st2" cx="276.8" cy="522.6" r="78.5"/>
<path class="st4" d="M624.6,576L576,649.4c-24.6-16.3-39.4-43.9-39.4-73.4c0-48.3,39.7-88,88-88s88,39.7,88,88H624.6z"/>
<path class="st5" d="M712.6,679.6l-46.5-77.5c14-8.4,30.1-12.9,46.5-12.9c49.6,0,90.4,40.8,90.4,90.4H712.6z"/>
<path class="st3" d="M314.6,316.6h67.5c0,37.1-30.5,67.5-67.5,67.5S247,353.7,247,316.6c0-17.3,6.7-34,18.6-46.5L314.6,316.6z"/>
<path class="st2" d="M929.5,134.1l-67.1-7.5c1-9.3,4-18.2,8.6-26.3c18.5-32.1,60.2-43.2,92.3-24.7s43.2,60.2,24.7,92.3
	c-8.7,15-22.7,26.1-39.3,31L929.5,134.1z"/>
<ellipse transform="matrix(0.9239 -0.3827 0.3827 0.9239 -233.7876 250.0701)" class="st2" cx="511.7" cy="712.7" rx="27.9" ry="27.9"/>
<circle class="st3" cx="978.6" cy="553.3" r="30.7"/>
<circle class="st3" cx="314.6" cy="134.1" r="30.7"/>
<path class="st4" d="M1034.5,798l-118.8,0.1c0,0,0,0,0-0.1c0-65,53.4-118.6,118.4-118.8L1034.5,798z"/>
</svg>
