<?xml version="1.0" encoding="utf-8"?>
<!-- Generator: Adobe Illustrator 22.1.0, SVG Export Plug-In . SVG Version: 6.00 Build 0)  -->
<svg version="1.1" id="Layer_1" xmlns="http://www.w3.org/2000/svg" xmlns:xlink="http://www.w3.org/1999/xlink" x="0px" y="0px"
	 viewBox="0 0 595.3 841.9" style="enable-background:new 0 0 595.3 841.9;" xml:space="preserve">
<style type="text/css">
	.st0{fill:#00A76F;}
	.st1{clip-path:url(#SVGID_2_);}
	.st2{fill:#008054;}
	.st3{fill:#005E3B;}
</style>
<g>
	<path class="st0" d="M529.7,623.2l-28.3,28.3c-4.9,4.9-12.7,4.9-17.6,0L310.3,478c-4.9-4.9-4.9-12.7,0-17.6l28.3-28.3
		c4.9-4.9,12.7-4.9,17.6,0l173.5,173.5C534.5,610.5,534.5,618.3,529.7,623.2z"/>
	<circle class="st0" cx="257.9" cy="379.7" r="162.1"/>
</g>
<g>
	<defs>
		<polygon id="SVGID_1_" points="357.1,867 -54,451 136.7,258 547.7,674.1 		"/>
	</defs>
	<clipPath id="SVGID_2_">
		<use xlink:href="#SVGID_1_"  style="overflow:visible;"/>
	</clipPath>
	<g class="st1">
		<path class="st2" d="M526.4,624.2l-26.6,26.9c-5.2,5.3-13.7,5.3-18.9,0L310.3,478.4c-5.2-5.3-5.2-13.8,0-19.1l26.6-26.9
			c5.2-5.3,13.7-5.3,18.9,0l170.6,172.7C531.6,610.4,531.6,618.9,526.4,624.2z"/>
		<ellipse class="st2" cx="257.6" cy="379.1" rx="160.8" ry="162.7"/>
	</g>
</g>
<circle class="st3" cx="257.9" cy="379.7" r="113.5"/>
</svg>
